<svg width="512" height="512" viewBox="0 0 512 512" fill="none" xmlns="http://www.w3.org/2000/svg">
  <rect width="512" height="512" rx="96" fill="#FF4B27"/>
  <g transform="translate(112, 112) scale(10.56)">
    <path d="M7.608 26.844l1.232-4.52c1.047-3.84 3.908-6.541 7.993-6.541 4.085 0 6.946 2.7 7.993 6.541l1.233 4.52c.12.431.42.602.857.484l4.221-1.131c.437-.118.61-.415.495-.846L25.688 3.408c-.12-.436-.425-.603-.862-.484l-4.238 1.155c-.437.118-.605.419-.49.85l1.608 5.91H11.96l1.607-5.91c.116-.431-.053-.732-.49-.85L8.84 2.924c-.437-.119-.742.048-.861.484L2.035 25.35c-.116.43.057.728.494.846l4.222 1.13c.436.119.737-.052.857-.483z" fill="white"/>
  </g>
</svg>
